<svg width="300" height="300" viewBox="0 0 300 300" fill="none" xmlns="http://www.w3.org/2000/svg">
<rect width="300" height="300" fill="#FAFF00"/>
<path fill-rule="evenodd" clip-rule="evenodd" d="M150 19H79L150 153H79L150 287H221L150 153H221L150 19Z" fill="#1C9F31"/>
<path d="M143.4 124.736C143.101 121.024 142.888 117.419 142.76 113.92C142.675 110.421 142.632 107.115 142.632 104C142.632 98.8373 142.739 94.208 142.952 90.112C143.165 85.9733 143.379 82.4107 143.592 79.424C139.923 79.6373 136.36 79.9147 132.904 80.256C129.448 80.5973 126.248 81.0453 123.304 81.6L123.432 70.912C128.424 70.016 133.544 69.376 138.792 68.992C144.04 68.5653 149.288 68.352 154.536 68.352C158.291 68.352 161.875 68.4373 165.288 68.608C168.744 68.7787 172.051 69.0347 175.208 69.376L175.144 80.448C172.157 79.9787 168.915 79.6587 165.416 79.488C161.96 79.2747 158.419 79.168 154.792 79.168C154.579 82.0693 154.387 85.312 154.216 88.896C154.045 92.4373 153.96 96.2347 153.96 100.288C153.96 103.915 154.045 107.733 154.216 111.744C154.429 115.755 154.685 119.979 154.984 124.416L143.4 124.736Z" fill="white"/>
<path d="M141.4 257.736C141.101 254.024 140.888 250.419 140.76 246.92C140.675 243.421 140.632 240.115 140.632 237C140.632 231.837 140.739 227.208 140.952 223.112C141.165 218.973 141.379 215.411 141.592 212.424C137.923 212.637 134.36 212.915 130.904 213.256C127.448 213.597 124.248 214.045 121.304 214.6L121.432 203.912C126.424 203.016 131.544 202.376 136.792 201.992C142.04 201.565 147.288 201.352 152.536 201.352C156.291 201.352 159.875 201.437 163.288 201.608C166.744 201.779 170.051 202.035 173.208 202.376L173.144 213.448C170.157 212.979 166.915 212.659 163.416 212.488C159.96 212.275 156.419 212.168 152.792 212.168C152.579 215.069 152.387 218.312 152.216 221.896C152.045 225.437 151.96 229.235 151.96 233.288C151.96 236.915 152.045 240.733 152.216 244.744C152.429 248.755 152.685 252.979 152.984 257.416L141.4 257.736Z" fill="white"/>
</svg>
